<svg id="Layer_1" data-name="Layer 1" xmlns="http://www.w3.org/2000/svg" viewBox="0 0 888.24 158.89"><defs><style>.cls-1,.cls-2{fill:none;stroke-miterlimit:10;stroke-width:20px;}.cls-1{stroke:#0d3027;}.cls-2{stroke:#75c4ad;}</style></defs><title>logo_name</title><path class="cls-1" d="M106.88,202.73v-91s37.26.06,50.63.06c26,0,25,33.28,25,48.6,0,13.08,0,42.49-25,42.49C141.71,202.88,106.88,202.73,106.88,202.73Z" transform="translate(-96.88 -101.52)"/><path class="cls-1" d="M347.85,162.85v56.56c0,17.67-12.83,31-31,31-26,0-29.94-24.23-27.89-16" transform="translate(-96.88 -101.52)"/><path class="cls-1" d="M255.47,155.28a27.89,27.89,0,0,0-39.44,0h0a27.88,27.88,0,0,0,0,39.43h0a27.89,27.89,0,0,0,39.44,0h0a27.88,27.88,0,0,0,0-39.43h0" transform="translate(-96.88 -101.52)"/><path class="cls-1" d="M689,155.28a27.89,27.89,0,0,0-39.44,0h0a27.88,27.88,0,0,0,0,39.43h0a27.89,27.89,0,0,0,39.44,0h0a27.88,27.88,0,0,0,0-39.43h0" transform="translate(-96.88 -101.52)"/><path class="cls-1" d="M336.55,155.28a27.88,27.88,0,0,0-39.43,0h0a27.88,27.88,0,0,0,0,39.43h0a27.88,27.88,0,0,0,39.43,0h0a27.88,27.88,0,0,0,0-39.43h0" transform="translate(-96.88 -101.52)"/><path class="cls-1" d="M372.7,139v37.17h0c0,12.4,9.27,23.08,21.6,24.32a31.21,31.21,0,0,0,6.41,0c12.37-1.24,21.63-12,21.65-24.4h0V211" transform="translate(-96.88 -101.52)"/><path class="cls-1" d="M531.86,211V173.78h0a24.35,24.35,0,0,0-21.61-24.32,32.59,32.59,0,0,0-6.4,0c-12.38,1.24-21.64,12-21.66,24.41h0V139" transform="translate(-96.88 -101.52)"/><path class="cls-1" d="M611.44,210.54V173.37h0a24.34,24.34,0,0,0-21.61-24.32,31.11,31.11,0,0,0-6.4,0c-12.37,1.23-21.64,12-21.66,24.4h0V111.73" transform="translate(-96.88 -101.52)"/><line class="cls-1" x1="355.4" y1="37.11" x2="355.4" y2="109.02"/><circle class="cls-1" cx="355.4" cy="22.7" r="1.94"/><line class="cls-2" x1="802.48" y1="37.11" x2="802.48" y2="109.02"/><circle class="cls-2" cx="802.48" cy="22.7" r="1.94"/><polyline class="cls-2" points="668.4 53.18 630.15 53.18 630.15 109.22 630.15 10.01 680.65 10.03"/><path class="cls-2" d="M837.6,185.63s.54,17.25-27.65,17.25c-27.71,0-27.64-18.14-27.64-34.64a26.85,26.85,0,0,1,8.17-19.72h0a27.88,27.88,0,0,1,39.43,0s7.7,6.53,7.69,19.72H789.51" transform="translate(-96.88 -101.52)"/><line class="cls-2" x1="770.63" y1="0.07" x2="770.63" y2="109.02"/><polyline class="cls-2" points="824.9 45.27 878.24 45.27 878.24 54.27 835.56 92.64 835.56 99.02 888.24 99.02"/></svg>